# xmcd
# 
# Track frame offsets:
#     150
#     18100
#     37742
#     52815
#     72757
#     89500
#     109275
#     125790
#     144002
#     162267
#     176347
# 
# Disc length: 2647
# 
# Revision: 3
# Processed by: cddbd v1.5.2PL0 Copyright (c) Steve Scherf et al.
# Submitted via: fre:ac v1.0.17
# 
DISCID=830a550b
DTITLE=rumania montevideo - rumaniamania
DYEAR=1999
DGENRE=JPop
TTITLE0=lifevideo
TTITLE1=Still for your love
TTITLE2=コハク
TTITLE3=さよなら
TTITLE4=daylight
TTITLE5=yesterday
TTITLE6=pair
TTITLE7=群衆
TTITLE8=anny
TTITLE9=Good-bye Summer Vacation
TTITLE10=repeat
EXTD=
EXTT0=
EXTT1=
EXTT2=
EXTT3=
EXTT4=
EXTT5=
EXTT6=
EXTT7=
EXTT8=
EXTT9=
EXTT10=
PLAYORDER=
